<svg width="121" height="83" viewBox="0 0 121 83" fill="none" xmlns="http://www.w3.org/2000/svg">
<g clip-path="url(#clip0_1_18)">
<path d="M0 41.4833C0 54.9114 4.43156 67.3064 11.8952 77.302C13.0614 78.835 14.9607 79.0015 16.4267 77.8353C17.7595 76.7026 17.9261 74.9365 16.8932 73.4704C10.1959 64.5741 6.23082 53.4453 6.23082 41.4833C6.23082 29.4548 10.1959 18.3926 16.8932 9.42954C17.9261 8.03012 17.7928 6.26416 16.4267 5.09796C14.994 3.93175 13.0281 4.13169 11.8952 5.66441C4.43156 15.6271 0 28.0221 0 41.4833ZM119.585 41.4833C119.585 28.0221 115.154 15.6271 107.657 5.66441C106.524 4.13169 104.591 3.93175 103.125 5.09796C101.792 6.26416 101.659 8.03012 102.692 9.42954C109.389 18.3926 113.321 29.4548 113.321 41.4833C113.321 53.4453 109.389 64.5741 102.692 73.4704C101.659 74.9365 101.792 76.7026 103.125 77.8353C104.591 79.0015 106.524 78.835 107.657 77.302C115.154 67.3064 119.585 54.9114 119.585 41.4833Z" fill="black" fill-opacity="0.85"/>
<path d="M59.7758 82.9331C82.6667 82.9331 101.259 64.3741 101.259 41.4833C101.259 18.5925 82.6667 0 59.7758 0C36.885 0 18.3259 18.5925 18.3259 41.4833C18.3259 64.3741 36.885 82.9331 59.7758 82.9331ZM59.7758 76.7356C40.3171 76.7356 24.5235 60.942 24.5235 41.4833C24.5235 22.0245 40.3171 6.19752 59.7758 6.19752C79.2349 6.19752 95.0616 22.0245 95.0616 41.4833C95.0616 60.942 79.2349 76.7356 59.7758 76.7356Z" fill="black" fill-opacity="0.85"/>
<path d="M41.7167 44.4155C41.7167 45.3818 42.483 46.0147 43.4493 46.0147H57.5434L50.0132 66.4066C49.0469 68.839 51.6458 70.1383 53.2453 68.2058L76.0693 39.5173C76.5026 39.0175 76.7025 38.4845 76.7025 38.0181C76.7025 37.0518 75.9693 36.4186 75.0031 36.4186H60.8755L68.4391 16.0269C69.372 13.6279 66.8065 12.2951 65.207 14.2276L42.383 42.916C41.9497 43.4158 41.7167 43.9491 41.7167 44.4155Z" fill="black" fill-opacity="0.85"/>
</g>
<defs>
<clipPath id="clip0_1_18">
<rect width="120.818" height="83" fill="white"/>
</clipPath>
</defs>
</svg>
